<?xml version="1.0" encoding="UTF-8" standalone="no"?>
<svg width="72.888268mm" height="64.999969mm" viewBox="0 0 72.888268 64.999969" version="1.1" id="svg5" xml:space="preserve" xmlns="http://www.w3.org/2000/svg" xmlns:svg="http://www.w3.org/2000/svg">
  <defs id="defs9">
    <clipPath clipPathUnits="userSpaceOnUse" id="clipPath7">
      <path style="display:none;fill:#000000;fill-opacity:1;stroke:none;stroke-width:4.99999;stroke-dasharray:none;stroke-opacity:1;paint-order:markers fill stroke" d="m -86.610549,417.757 h 14.999999 v -4.99999 c 0,-9.01577 -11.484843,-10.13512 -14.3559,-3.37812 -0.205084,0.48266 -0.36622,1.00548 -0.476088,1.5685 h -6.168463 v 6.80961 z" id="path7" />
      <path id="lpe_path-effect7" style="display:inline;fill:#000000;fill-opacity:1;stroke:none;stroke-width:4.99999;stroke-dasharray:none;stroke-opacity:1;paint-order:markers fill stroke" class="powerclip" d="m -99.11055,395.00577 h 40 v 52.75161 h -40 z m 12.500001,22.75123 h 14.999999 v -4.99999 c 0,-9.01577 -11.484843,-10.13512 -14.3559,-3.37812 -0.205084,0.48266 -0.36622,1.00548 -0.476088,1.5685 h -6.168463 v 6.80961 z" />
    </clipPath>
  </defs>
  <path style="display:inline;fill:#ffffff;fill-opacity:1;stroke:none;stroke-width:4.99999;stroke-dasharray:none;stroke-opacity:1;paint-order:markers fill stroke" d="m -94.11055,442.75738 v -25 h 2.5 v -5 c 0,-16.98892 25,-17.01537 25,0 v 5 h 2.5 v 25 z" id="path31345-2" clip-path="url(#clipPath7)" transform="matrix(1.188,0,0,1.188,130.42747,-468.10132)" />
</svg>
